# xmcd
#
# Track frame offsets: 
#        150
#        21007
#        48026
#        71673
#        89360
#        111893
#        125160
#        153398
#        181956
#        199628
#        218116
#        235840
#        252617
#        269170
#        281768
#        299095
#        315411
#        332158
#
# Disc length: 4773 seconds
#
# Revision: 0
# Processed by: cddbd v1.5.2PL0 Copyright (c) Steve Scherf et al.
# Submitted via: ExactAudioCopy v1.3
#
DISCID=1a12a312
DTITLE=Various Artist - Akella Presents - vol. 181 - Various Styles O
DTITLE=f Blues  CD1
DYEAR=2019
DGENRE=Blues
TTITLE0=Billy C. Farlow - Magnolia Darlin'
TTITLE1=Eric Street Band - Child of Yesterday
TTITLE2=Roxy Perry - Mother's Blues
TTITLE3=John Mayall - What Have I Done Wrong
TTITLE4=Blues Cousins - Take My Hand
TTITLE5=Grady Champion - Shade Tree Mechanic
TTITLE6=Andy Watts - Looking for Somebody
TTITLE7=Gary Hoey - Mercy Of Love
TTITLE8=Big Reymore - Rodeo Dr
TTITLE9=Ron Evans Group - Up or Down
TTITLE10=Supersonic Blues Machine - Right Now
TTITLE11=Blue Attitude - In The Still Of The Night
TTITLE12=Earl Thomas - All Your Love
TTITLE13=Mojo Martin - Got the Travelling Bug
TTITLE14=Michael Burks - I Smell Smoke
TTITLE15=Guitar Mikey And The Real Thing - She Needs Time
TTITLE16=Lucky Peterson - After The Dance
TTITLE17=Frankie Spellman - Slip Away
EXTD=
EXTT0=
EXTT1=
EXTT2=
EXTT3=
EXTT4=
EXTT5=
EXTT6=
EXTT7=
EXTT8=
EXTT9=
EXTT10=
EXTT11=
EXTT12=
EXTT13=
EXTT14=
EXTT15=
EXTT16=
EXTT17=
PLAYORDER=
